<svg width="1438" height="320" viewBox="0 0 1438 320" fill="none" xmlns="http://www.w3.org/2000/svg">
<path d="M80.1265 320H0V0H80.1265V51.1189H33.1607V133.765L80.1265 96.3828V153.582L33.1607 191.414V268.881H80.1265V320Z" fill="#FCE8BD"/>
<path d="M99.3398 25.6721L131.647 0V320H99.3398V25.6721Z" fill="#FCE8BD"/>
<path d="M185.159 170.021L209.354 151.555V110.57H185.159V170.021ZM153.422 107.868C153.422 93.9057 155.794 83.0213 160.538 75.2146C165.282 67.4079 171.923 63.5046 180.463 63.5046H214.05C222.589 63.5046 229.231 67.4079 233.975 75.2146C238.719 83.0213 241.091 93.9057 241.091 107.868V172.949L185.159 217.537V272.034H209.354V234.652L241.091 208.304V276.087C241.091 290.049 238.719 300.859 233.975 308.515C229.231 316.172 222.589 320 214.05 320H180.463C171.923 320 165.282 316.172 160.538 308.515C155.794 300.859 153.422 290.049 153.422 276.087V107.868Z" fill="#FCE8BD"/>
<path d="M318.087 239.209V112.822H295.031V239.209H318.087ZM262.724 63.5046H295.031V89.4018C296.454 81.1447 298.921 74.7643 302.431 70.2604C305.942 65.7565 310.164 63.5046 315.098 63.5046H325.345C334.264 63.5046 340.668 66.9575 344.558 73.8635C348.448 80.7694 350.393 92.1042 350.393 107.868V245.514C350.393 261.578 348.448 272.913 344.558 279.518C340.763 286.124 334.359 289.427 325.345 289.427H315.098C309.974 289.427 305.752 287.325 302.431 283.121C299.111 278.768 296.644 272.237 295.031 263.53V320H262.724V63.5046Z" fill="#FCE8BD"/>
<path d="M372.026 25.6721L404.333 0V89.4018C405.946 80.9946 408.46 74.6141 411.876 70.2604C415.292 65.7565 419.371 63.5046 424.116 63.5046H434.932C443.661 63.5046 449.97 66.9575 453.861 73.8635C457.751 80.7694 459.696 92.1042 459.696 107.868V320H427.389V112.822H404.333V320H372.026V25.6721Z" fill="#FCE8BD"/>
<path d="M537.26 199.071L513.066 217.987V272.034H537.26V199.071ZM481.328 107.868C481.328 93.9057 483.7 83.0213 488.444 75.2146C493.188 67.4079 499.83 63.5046 508.369 63.5046H541.957C550.496 63.5046 557.138 67.4079 561.882 75.2146C566.626 83.0213 568.998 93.9057 568.998 107.868V320H536.691V294.103C535.268 302.36 532.801 308.74 529.29 313.244C525.78 317.748 521.558 320 516.624 320H506.377C497.458 320 491.054 316.622 487.164 309.866C483.273 303.111 481.328 291.851 481.328 276.087V193.666L537.26 149.303V110.57H513.066V133.315L481.328 158.987V107.868Z" fill="#FCE8BD"/>
<path d="M590.631 63.5046H622.937V89.4018C624.266 81.1447 626.638 74.7643 630.053 70.2604C633.564 65.7565 637.786 63.5046 642.72 63.5046H654.106C662.076 63.5046 668.1 67.2578 672.18 74.7643C676.26 82.2707 678.3 93.3052 678.3 107.868V320H645.993V112.822H622.937V320H590.631V63.5046Z" fill="#FCE8BD"/>
<path d="M740.067 271.133H769.812V320H734.944C726.31 320 719.621 316.172 714.877 308.515C710.133 300.859 707.76 290.049 707.76 276.087V158.536L690.255 172.949V121.154L707.76 106.967V43.2372L740.067 13.7368V81.0697L766.966 59.0007V111.02L740.067 132.864V271.133Z" fill="#FCE8BD"/>
<path d="M839.976 43.6875C839.976 29.8757 842.301 19.1415 846.95 11.4849C851.694 3.82829 858.288 0 866.733 0H903.736C912.275 0 918.917 3.82829 923.661 11.4849C928.5 19.1415 930.919 29.8757 930.919 43.6875V85.3484L897.332 111.921V50.6685H873.137V269.331H897.332V224.068L930.919 196.819V276.087C930.919 290.049 928.547 300.859 923.803 308.515C919.059 316.172 912.37 320 903.736 320H866.733C858.288 320 851.694 316.172 846.95 308.515C842.301 300.859 839.976 290.049 839.976 276.087V43.6875Z" fill="#FCE8BD"/>
<path d="M953.833 107.868C953.833 93.9057 956.205 83.0213 960.949 75.2146C965.693 67.4079 972.335 63.5046 980.874 63.5046H1014.46C1023 63.5046 1029.64 67.4079 1034.39 75.2146C1039.13 83.0213 1041.5 93.9057 1041.5 107.868V275.637C1041.5 290.35 1039.18 301.459 1034.53 308.966C1029.88 316.322 1023 320 1013.89 320H980.874C972.335 320 965.693 316.172 960.949 308.515C956.205 300.859 953.833 290.049 953.833 276.087V107.868ZM1009.2 112.822H986.14V271.133H1009.2V112.822Z" fill="#FCE8BD"/>
<path d="M1064.56 43.6875C1064.56 29.7255 1066.88 18.9913 1071.53 11.4849C1076.28 3.82829 1082.87 0 1091.31 0H1121.06C1129.69 0 1136.38 3.82829 1141.13 11.4849C1145.87 19.1415 1148.24 29.8757 1148.24 43.6875V57.6495L1115.22 83.3216L1115.79 48.867H1096.87V127.685L1136.86 95.9324V149.303L1096.87 181.731V320H1064.56V43.6875Z" fill="#FCE8BD"/>
<path d="M1154.5 43.6875C1154.5 29.7255 1156.83 18.9913 1161.48 11.4849C1166.22 3.82829 1172.82 0 1181.26 0H1211.01C1219.64 0 1226.33 3.82829 1231.07 11.4849C1235.82 19.1415 1238.19 29.8757 1238.19 43.6875V57.6495L1205.17 83.3216L1205.74 48.867H1186.81V127.685L1226.8 95.9324V149.303L1186.81 181.731V320H1154.5V43.6875Z" fill="#FCE8BD"/>
<path d="M1274.77 170.021L1298.96 151.555V110.57H1274.77V170.021ZM1243.03 107.868C1243.03 93.9057 1245.4 83.0213 1250.14 75.2146C1254.89 67.4079 1261.53 63.5046 1270.07 63.5046H1303.66C1312.2 63.5046 1318.84 67.4079 1323.58 75.2146C1328.33 83.0213 1330.7 93.9057 1330.7 107.868V172.949L1274.77 217.537V272.034H1298.96V234.652L1330.7 208.304V276.087C1330.7 290.049 1328.33 300.859 1323.58 308.515C1318.84 316.172 1312.2 320 1303.66 320H1270.07C1261.53 320 1254.89 316.172 1250.14 308.515C1245.4 300.859 1243.03 290.049 1243.03 276.087V107.868Z" fill="#FCE8BD"/>
<path d="M1384.07 170.021L1408.26 151.555V110.57H1384.07V170.021ZM1352.33 107.868C1352.33 93.9057 1354.7 83.0213 1359.45 75.2146C1364.19 67.4079 1370.83 63.5046 1379.37 63.5046H1412.96C1421.5 63.5046 1428.14 67.4079 1432.88 75.2146C1437.63 83.0213 1440 93.9057 1440 107.868V172.949L1384.07 217.537V272.034H1408.26V234.652L1440 208.304V276.087C1440 290.049 1437.63 300.859 1432.88 308.515C1428.14 316.172 1421.5 320 1412.96 320H1379.37C1370.83 320 1364.19 316.172 1359.45 308.515C1354.7 300.859 1352.33 290.049 1352.33 276.087V107.868Z" fill="#FCE8BD"/>
</svg>
