<svg width="268" height="101" viewBox="0 0 268 101" fill="none" xmlns="http://www.w3.org/2000/svg">
<path d="M17.6243 50.5C13.1921 47.8752 9.7282 43.8236 7.7697 38.9735C5.8112 34.1235 5.4676 28.7461 6.79218 23.6753C8.11677 18.6045 11.0355 14.1238 15.0957 10.928C19.156 7.73222 24.1308 6 29.2486 6C34.3664 6 39.3412 7.73222 43.4014 10.928C47.4616 14.1238 50.3804 18.6045 51.705 23.6753C53.0295 28.7461 52.6859 34.1235 50.7274 38.9735C48.7689 43.8236 45.305 47.8752 40.8728 50.5C36.4407 53.1248 32.9768 57.1764 31.0183 62.0265C29.0598 66.8765 28.7162 72.2539 30.0407 77.3247C31.3653 82.3955 34.2841 86.8762 38.3443 90.072C42.4045 93.2678 47.3793 95 52.4971 95C57.6149 95 62.5897 93.2678 66.65 90.072C70.7102 86.8762 73.6289 82.3955 74.9535 77.3247C76.2781 72.2539 75.9345 66.8765 73.976 62.0265C72.0175 57.1764 68.5536 53.1248 64.1214 50.5C59.6893 47.8752 56.2253 43.8236 54.2668 38.9735C52.3083 34.1235 51.9647 28.7461 53.2893 23.6753C54.6139 18.6045 57.5326 14.1238 61.5929 10.928C65.6531 7.73222 70.6279 6 75.7457 6C80.8635 6 85.8383 7.73222 89.8985 10.928C93.9587 14.1238 96.8775 18.6045 98.2021 23.6753C99.5267 28.7461 99.1831 34.1235 97.2246 38.9735C95.2661 43.8236 91.8021 47.8752 87.37 50.5C82.9378 53.1248 79.4739 57.1764 77.5154 62.0265C75.5569 66.8765 75.2133 72.2539 76.5379 77.3247C77.8625 82.3955 80.7812 86.8762 84.8414 90.072C88.9016 93.2678 93.8764 95 98.9943 95C104.112 95 109.087 93.2678 113.147 90.072C117.207 86.8762 120.126 82.3955 121.451 77.3247C122.775 72.2539 122.432 66.8765 120.473 62.0265C118.515 57.1764 115.051 53.1248 110.619 50.5C106.186 47.8752 102.722 43.8236 100.764 38.9735C98.8054 34.1235 98.4618 28.7461 99.7864 23.6753C101.111 18.6045 104.03 14.1238 108.09 10.928C112.15 7.73222 117.125 6 122.243 6C127.361 6 132.335 7.73222 136.396 10.928C140.456 14.1238 143.375 18.6045 144.699 23.6753C146.024 28.7461 145.68 34.1235 143.722 38.9735C141.763 43.8236 138.299 47.8752 133.867 50.5C129.435 53.1248 125.971 57.1764 124.013 62.0265C122.054 66.8765 121.71 72.2539 123.035 77.3247C124.36 82.3955 127.278 86.8762 131.339 90.072C135.399 93.2678 140.374 95 145.491 95C150.609 95 155.584 93.2678 159.644 90.072C163.704 86.8762 166.623 82.3955 167.948 77.3247C169.272 72.2539 168.929 66.8765 166.97 62.0265C165.012 57.1764 161.548 53.1248 157.116 50.5C152.683 47.8752 149.22 43.8236 147.261 38.9735C145.303 34.1235 144.959 28.7461 146.284 23.6753C147.608 18.6045 150.527 14.1238 154.587 10.928C158.647 7.73222 163.622 6 168.74 6C173.858 6 178.833 7.73222 182.893 10.928C186.953 14.1238 189.872 18.6045 191.196 23.6753C192.521 28.7461 192.177 34.1235 190.219 38.9735C188.26 43.8236 184.796 47.8752 180.364 50.5C175.932 53.1248 172.468 57.1764 170.51 62.0265C168.551 66.8765 168.208 72.2539 169.532 77.3247C170.857 82.3955 173.775 86.8762 177.836 90.072C181.896 93.2678 186.871 95 191.988 95C197.106 95 202.081 93.2678 206.141 90.072C210.202 86.8762 213.12 82.3955 214.445 77.3247C215.769 72.2539 215.426 66.8765 213.467 62.0265C211.509 57.1764 208.045 53.1248 203.613 50.5C199.181 47.8752 195.717 43.8236 193.758 38.9735C191.8 34.1235 191.456 28.7461 192.781 23.6753C194.105 18.6045 197.024 14.1238 201.084 10.928C205.144 7.73222 210.119 6 215.237 6C220.355 6 225.33 7.73222 229.39 10.928C233.45 14.1238 236.369 18.6045 237.693 23.6753C239.018 28.7461 238.674 34.1235 236.716 38.9735C234.757 43.8236 231.293 47.8752 226.861 50.5C222.429 53.1248 218.965 57.1764 217.007 62.0265C215.048 66.8765 214.705 72.2539 216.029 77.3247C217.354 82.3955 220.273 86.8762 224.333 90.072C228.393 93.2678 233.368 95 238.486 95C243.603 95 248.578 93.2678 252.638 90.072C256.699 86.8762 259.617 82.3955 260.942 77.3247C262.267 72.2539 261.923 66.8765 259.964 62.0265C258.006 57.1764 254.542 53.1248 250.11 50.5" stroke="#F19100" stroke-width="11" stroke-linecap="round"/>
</svg>
