<svg width="2012" height="34" viewBox="0 0 2012 34" fill="none" xmlns="http://www.w3.org/2000/svg">
<path d="M6 17C19.3333 10.3333 32.6667 10.3333 46 17C59.3333 23.6667 72.6667 23.6667 86 17C99.3333 10.3333 112.667 10.3333 126 17C139.333 23.6667 152.667 23.6667 166 17C179.333 10.3333 192.667 10.3333 206 17C219.333 23.6667 232.667 23.6667 246 17C259.333 10.3333 272.667 10.3333 286 17C299.333 23.6667 312.667 23.6667 326 17C339.333 10.3333 352.667 10.3333 366 17C379.333 23.6667 392.667 23.6667 406 17C419.333 10.3333 432.667 10.3333 446 17C459.333 23.6667 472.667 23.6667 486 17C499.333 10.3333 512.667 10.3333 526 17C539.333 23.6667 552.667 23.6667 566 17C579.333 10.3333 592.667 10.3333 606 17C619.333 23.6667 632.667 23.6667 646 17C659.333 10.3333 672.667 10.3333 686 17C699.333 23.6667 712.667 23.6667 726 17C739.333 10.3333 752.667 10.3333 766 17C779.333 23.6667 792.667 23.6667 806 17C819.333 10.3333 832.667 10.3333 846 17C859.333 23.6667 872.667 23.6667 886 17C899.333 10.3333 912.667 10.3333 926 17C939.333 23.6667 952.667 23.6667 966 17C979.333 10.3333 992.667 10.3333 1006 17C1019.33 23.6667 1032.67 23.6667 1046 17C1059.33 10.3333 1072.67 10.3333 1086 17C1099.33 23.6667 1112.67 23.6667 1126 17C1139.33 10.3333 1152.67 10.3333 1166 17C1179.33 23.6667 1192.67 23.6667 1206 17C1219.33 10.3333 1232.67 10.3333 1246 17C1259.33 23.6667 1272.67 23.6667 1286 17C1299.33 10.3333 1312.67 10.3333 1326 17C1339.33 23.6667 1352.67 23.6667 1366 17C1379.33 10.3333 1392.67 10.3333 1406 17C1419.33 23.6667 1432.67 23.6667 1446 17C1459.33 10.3333 1472.67 10.3333 1486 17C1499.33 23.6667 1512.67 23.6667 1526 17C1539.33 10.3333 1552.67 10.3333 1566 17C1579.33 23.6667 1592.67 23.6667 1606 17C1619.33 10.3333 1632.67 10.3333 1646 17C1659.33 23.6667 1672.67 23.6667 1686 17C1699.33 10.3333 1712.67 10.3333 1726 17C1739.33 23.6667 1752.67 23.6667 1766 17C1779.33 10.3333 1792.67 10.3333 1806 17C1819.33 23.6667 1832.67 23.6667 1846 17C1859.33 10.3333 1872.67 10.3333 1886 17C1899.33 23.6667 1912.67 23.6667 1926 17C1939.33 10.3333 1952.67 10.3333 1966 17C1979.33 23.6667 1992.67 23.6667 2006 17" stroke="#ED682B" stroke-width="23"/>
</svg>
