<svg width="34" height="1485" viewBox="0 0 34 1485" fill="none" xmlns="http://www.w3.org/2000/svg">
<path d="M17 1479C10.3333 1466.73 10.3333 1454.45 17 1442.18C23.6667 1429.9 23.6667 1417.63 17 1405.35C10.3333 1393.08 10.3333 1380.8 17 1368.53C23.6667 1356.25 23.6667 1343.98 17 1331.7C10.3333 1319.43 10.3333 1307.15 17 1294.88C23.6667 1282.6 23.6667 1270.33 17 1258.05C10.3333 1245.78 10.3333 1233.5 17 1221.23C23.6667 1208.95 23.6667 1196.68 17 1184.4C10.3333 1172.13 10.3333 1159.85 17 1147.58C23.6667 1135.3 23.6667 1123.02 17 1110.75C10.3333 1098.48 10.3333 1086.2 17 1073.93C23.6667 1061.65 23.6667 1049.38 17 1037.1C10.3333 1024.83 10.3333 1012.55 17 1000.28C23.6667 988 23.6667 975.725 17 963.45C10.3333 951.175 10.3333 938.9 17 926.625C23.6667 914.35 23.6667 902.075 17 889.8C10.3333 877.525 10.3333 865.25 17 852.975C23.6667 840.7 23.6667 828.425 17 816.15C10.3333 803.875 10.3333 791.6 17 779.325C23.6667 767.05 23.6667 754.775 17 742.5C10.3333 730.225 10.3333 717.95 17 705.675C23.6667 693.4 23.6667 681.125 17 668.85C10.3333 656.575 10.3333 644.3 17 632.025C23.6667 619.75 23.6667 607.475 17 595.2C10.3333 582.925 10.3333 570.65 17 558.375C23.6667 546.1 23.6667 533.825 17 521.55C10.3333 509.275 10.3333 497 17 484.725C23.6667 472.45 23.6667 460.175 17 447.9C10.3333 435.625 10.3333 423.35 17 411.075C23.6667 398.8 23.6667 386.525 17 374.25C10.3333 361.975 10.3333 349.7 17 337.425C23.6667 325.15 23.6667 312.875 17 300.6C10.3333 288.325 10.3333 276.05 17 263.775C23.6667 251.5 23.6667 239.225 17 226.95C10.3333 214.675 10.3333 202.4 17 190.125C23.6667 177.85 23.6667 165.575 17 153.3C10.3333 141.025 10.3333 128.75 17 116.475C23.6667 104.2 23.6667 91.925 17 79.65C10.3333 67.375 10.3333 55.1001 17 42.8251C23.6667 30.5501 23.6667 18.275 17 6" stroke="#F19100" stroke-width="23"/>
</svg>
