<svg width="560" height="26" viewBox="0 0 560 26" fill="none" xmlns="http://www.w3.org/2000/svg">
<path d="M5 13C14.1667 6.33333 23.3333 6.33333 32.5 13C41.6667 19.6667 50.8333 19.6667 60 13C69.1667 6.33333 78.3333 6.33333 87.5 13C96.6667 19.6667 105.833 19.6667 115 13C124.167 6.33333 133.333 6.33333 142.5 13C151.667 19.6667 160.833 19.6667 170 13C179.167 6.33333 188.333 6.33333 197.5 13C206.667 19.6667 215.833 19.6667 225 13C234.167 6.33333 243.333 6.33333 252.5 13C261.667 19.6667 270.833 19.6667 280 13C289.167 6.33333 298.333 6.33333 307.5 13C316.667 19.6667 325.833 19.6667 335 13C344.167 6.33333 353.333 6.33333 362.5 13C371.667 19.6667 380.833 19.6667 390 13C399.167 6.33333 408.333 6.33333 417.5 13C426.667 19.6667 435.833 19.6667 445 13C454.167 6.33333 463.333 6.33333 472.5 13C481.667 19.6667 490.833 19.6667 500 13C509.167 6.33333 518.333 6.33333 527.5 13C536.667 19.6667 545.833 19.6667 555 13" stroke="#F19100" stroke-width="16"/>
</svg>
